<?xml version="1.0" standalone="no"?>
<!DOCTYPE svg PUBLIC "-//W3C//DTD SVG 20010904//EN"
 "http://www.w3.org/TR/2001/REC-SVG-20010904/DTD/svg10.dtd">
<svg version="1.0" xmlns="http://www.w3.org/2000/svg"
 width="1280.000000pt" height="1280.000000pt" viewBox="0 0 1280.000000 1280.000000"
 preserveAspectRatio="xMidYMid meet">
<metadata>
Created by potrace 1.15, written by Peter Selinger 2001-2017
</metadata>
<g transform="translate(0.000000,1280.000000) scale(0.100000,-0.100000)"
fill="#000000" stroke="none">
<path d="M9700 9459 c-312 -26 -925 -51 -1571 -65 l-316 -7 -60 -76 c-32 -42
-157 -206 -278 -366 -192 -255 -274 -353 -297 -355 -3 0 -4 19 -1 43 4 36 53
176 183 520 42 109 46 147 23 176 -18 22 -31 25 -139 33 -65 5 -186 7 -269 4
-138 -5 -154 -8 -205 -33 -71 -36 -91 -76 -164 -328 -59 -205 -360 -1106 -450
-1350 -31 -82 -85 -242 -122 -355 -36 -113 -105 -324 -154 -470 -104 -311
-119 -370 -96 -404 20 -31 48 -35 185 -25 64 5 187 13 273 18 222 13 217 8
309 301 28 91 71 216 95 279 82 211 144 427 144 502 0 50 17 74 44 63 13 -5
16 -22 16 -88 0 -44 7 -162 14 -261 8 -99 20 -277 26 -395 15 -298 15 -297 56
-338 l35 -35 117 6 c64 4 218 15 342 26 l225 19 44 -25 44 -26 -28 -14 c-15
-8 -125 -37 -244 -63 -200 -45 -501 -129 -542 -150 -9 -6 -73 -27 -141 -49
-67 -22 -262 -84 -433 -139 -520 -168 -1109 -352 -1355 -422 -80 -23 -269 -79
-420 -125 -459 -140 -550 -158 -785 -159 -230 0 -411 36 -569 115 -100 50
-154 89 -244 181 -197 200 -284 408 -283 678 1 116 41 401 75 527 14 51 43
127 64 170 65 128 85 195 80 258 -3 30 -8 58 -11 62 -9 8 -6 13 -187 -252 -84
-121 -204 -296 -269 -388 -266 -382 -351 -535 -541 -972 -138 -317 -174 -420
-222 -625 -32 -139 -33 -153 -33 -350 0 -231 8 -273 75 -416 100 -214 273
-391 496 -506 221 -114 499 -179 764 -179 372 0 708 104 1480 459 495 227 610
281 975 457 215 103 509 244 655 312 146 69 306 144 355 168 50 23 245 116
435 205 468 220 515 243 745 355 523 255 622 303 790 382 99 47 286 134 415
193 453 208 798 369 1120 525 554 268 838 404 1175 560 110 51 245 115 300
142 55 28 224 107 375 177 321 148 386 183 414 220 18 23 19 28 6 36 -8 5 -26
10 -39 10 -13 0 -195 -54 -405 -119 -209 -66 -433 -135 -496 -154 -63 -19
-252 -78 -420 -130 -363 -113 -960 -296 -1480 -453 -158 -48 -248 -58 -235
-26 26 65 43 125 39 137 -10 25 -61 28 -409 24 l-340 -4 2 35 c3 47 138 494
166 550 15 29 37 53 62 67 36 20 51 21 281 22 265 0 287 4 335 57 17 18 42 77
69 159 24 72 56 167 71 213 33 95 37 140 13 149 -9 3 -140 -1 -292 -10 -165
-9 -285 -11 -299 -6 -13 5 -23 17 -23 28 0 48 146 453 182 504 35 49 63 56
265 67 367 19 369 20 426 70 35 31 59 82 125 275 11 33 28 82 39 108 18 48 18
49 -1 63 -21 15 -32 15 -176 3z m-1296 -296 c-13 -49 -33 -119 -44 -158 -10
-38 -31 -104 -46 -145 -36 -102 -459 -1357 -540 -1601 -35 -109 -76 -253 -90
-320 -23 -115 -44 -167 -71 -176 -21 -7 -25 32 -63 712 -11 198 -23 375 -26
393 -3 18 -5 91 -5 162 0 157 8 179 107 295 157 185 311 364 509 592 116 134
226 263 245 287 19 25 38 45 42 45 4 1 -4 -38 -18 -86z"/>
<path d="M6245 9314 c-143 -12 -272 -23 -287 -23 -25 -1 -29 -7 -45 -63 -32
-116 -612 -1832 -838 -2483 -54 -154 -99 -293 -102 -310 -8 -59 -6 -60 246
-63 262 -4 322 5 399 61 57 41 78 83 132 262 23 77 122 383 220 680 98 297
226 694 284 882 58 188 131 413 162 500 162 457 184 539 152 571 -14 14 -2 15
-323 -14z"/>
<path d="M5510 9300 c-58 -4 -145 -8 -195 -9 -103 -1 -147 -18 -180 -67 -11
-17 -69 -190 -128 -385 -154 -511 -190 -621 -222 -675 l-29 -49 -10 30 c-13
42 -10 291 8 610 26 448 24 476 -42 509 -29 14 -219 8 -462 -14 -181 -17 -187
-18 -229 -58 -35 -33 -44 -55 -91 -202 -130 -413 -208 -648 -267 -804 -72
-189 -107 -297 -193 -596 -78 -271 -154 -494 -288 -845 -60 -159 -113 -305
-117 -322 -3 -18 -1 -48 5 -67 17 -52 54 -61 220 -51 74 4 198 10 275 14 162
7 185 16 214 84 33 77 99 278 226 686 69 223 127 406 129 408 2 2 11 -35 20
-82 16 -81 16 -103 -3 -442 -29 -511 -29 -534 -8 -566 41 -62 38 -62 370 -48
166 7 312 17 324 22 46 17 65 65 254 669 128 408 306 945 374 1130 95 258 233
671 330 983 29 94 34 121 25 132 -14 16 -114 18 -310 5z"/>
</g>
</svg>
